<mxfile host="Electron" modified="2024-02-27T04:01:37.532Z" agent="Mozilla/5.0 (Windows NT 10.0; Win64; x64) AppleWebKit/537.36 (KHTML, like Gecko) draw.io/22.1.16 Chrome/120.0.6099.109 Electron/28.1.0 Safari/537.36" etag="4N59XFOH1fG1hR1_XKtb" version="22.1.16" type="device">
  <diagram name="第 1 页" id="jnDrRL5hOQPDZdu_0Wsa">
    <mxGraphModel dx="885" dy="609" grid="1" gridSize="10" guides="1" tooltips="1" connect="1" arrows="1" fold="1" page="1" pageScale="1" pageWidth="3300" pageHeight="4681" math="0" shadow="0">
      <root>
        <mxCell id="0" />
        <mxCell id="1" parent="0" />
        <mxCell id="qx7kBC9LTjTg-VdTga5V-23" style="edgeStyle=orthogonalEdgeStyle;rounded=0;orthogonalLoop=1;jettySize=auto;html=1;exitX=0.5;exitY=0;exitDx=0;exitDy=0;entryX=0.5;entryY=1;entryDx=0;entryDy=0;" parent="1" source="qx7kBC9LTjTg-VdTga5V-1" target="qx7kBC9LTjTg-VdTga5V-10" edge="1">
          <mxGeometry relative="1" as="geometry" />
        </mxCell>
        <mxCell id="qx7kBC9LTjTg-VdTga5V-1" value="&lt;font style=&quot;font-size: 17px;&quot;&gt;&lt;b&gt;噪声中文&lt;/b&gt;&lt;/font&gt;" style="text;html=1;strokeColor=none;fillColor=none;align=center;verticalAlign=middle;whiteSpace=wrap;rounded=1;" parent="1" vertex="1">
          <mxGeometry x="520" y="470" width="80" height="30" as="geometry" />
        </mxCell>
        <mxCell id="qx7kBC9LTjTg-VdTga5V-20" style="edgeStyle=orthogonalEdgeStyle;rounded=0;orthogonalLoop=1;jettySize=auto;html=1;exitX=0.5;exitY=0;exitDx=0;exitDy=0;entryX=0.5;entryY=1;entryDx=0;entryDy=0;" parent="1" source="qx7kBC9LTjTg-VdTga5V-2" target="qx7kBC9LTjTg-VdTga5V-16" edge="1">
          <mxGeometry relative="1" as="geometry" />
        </mxCell>
        <mxCell id="qx7kBC9LTjTg-VdTga5V-21" style="edgeStyle=orthogonalEdgeStyle;rounded=0;orthogonalLoop=1;jettySize=auto;html=1;" parent="1" source="qx7kBC9LTjTg-VdTga5V-2" edge="1">
          <mxGeometry relative="1" as="geometry">
            <mxPoint x="410" y="485" as="targetPoint" />
          </mxGeometry>
        </mxCell>
        <mxCell id="qx7kBC9LTjTg-VdTga5V-2" value="&lt;font style=&quot;font-size: 17px;&quot;&gt;&lt;b&gt;英文&lt;/b&gt;&lt;/font&gt;" style="text;html=1;strokeColor=none;fillColor=none;align=center;verticalAlign=middle;whiteSpace=wrap;rounded=1;" parent="1" vertex="1">
          <mxGeometry x="250" y="470" width="60" height="30" as="geometry" />
        </mxCell>
        <mxCell id="qx7kBC9LTjTg-VdTga5V-25" style="edgeStyle=orthogonalEdgeStyle;rounded=0;orthogonalLoop=1;jettySize=auto;html=1;exitX=0.5;exitY=0;exitDx=0;exitDy=0;" parent="1" source="qx7kBC9LTjTg-VdTga5V-10" edge="1">
          <mxGeometry relative="1" as="geometry">
            <mxPoint x="560" y="210" as="targetPoint" />
          </mxGeometry>
        </mxCell>
        <mxCell id="qx7kBC9LTjTg-VdTga5V-10" value="" style="rounded=1;whiteSpace=wrap;html=1;fillColor=#d5e8d4;strokeColor=#82b366;direction=east;" parent="1" vertex="1">
          <mxGeometry x="500" y="260" width="120" height="170" as="geometry" />
        </mxCell>
        <mxCell id="xzxTGH6ZJ5_GRjk7ozEz-1" style="edgeStyle=orthogonalEdgeStyle;rounded=0;orthogonalLoop=1;jettySize=auto;html=1;exitX=0.5;exitY=0;exitDx=0;exitDy=0;entryX=0.5;entryY=1;entryDx=0;entryDy=0;" edge="1" parent="1" source="qx7kBC9LTjTg-VdTga5V-12" target="qx7kBC9LTjTg-VdTga5V-13">
          <mxGeometry relative="1" as="geometry" />
        </mxCell>
        <mxCell id="qx7kBC9LTjTg-VdTga5V-12" value="&lt;b&gt;CLIP&lt;/b&gt;" style="rounded=1;whiteSpace=wrap;html=1;direction=east;" parent="1" vertex="1">
          <mxGeometry x="510" y="340" width="100" height="80" as="geometry" />
        </mxCell>
        <mxCell id="qx7kBC9LTjTg-VdTga5V-13" value="&lt;b&gt;Adapter&lt;/b&gt;" style="rounded=1;whiteSpace=wrap;html=1;direction=east;" parent="1" vertex="1">
          <mxGeometry x="510" y="280" width="100" height="40" as="geometry" />
        </mxCell>
        <mxCell id="qx7kBC9LTjTg-VdTga5V-14" value="" style="shape=image;verticalLabelPosition=bottom;verticalAlign=top;imageAspect=0;aspect=fixed;image=data:image/svg+xml,PHN2ZyB4bWxuczp4bGluaz0iaHR0cDovL3d3dy53My5vcmcvMTk5OS94bGluayIgeG1sbnM9Imh0dHA6Ly93d3cudzMub3JnLzIwMDAvc3ZnIiBoZWlnaHQ9IjIwMCIgd2lkdGg9IjIwMCIgdmVyc2lvbj0iMS4xIiB2aWV3Qm94PSIwIDAgMTAyNCAxMDI0IiBjbGFzcz0iaWNvbiI+PHBhdGggZmlsbD0iIzUxNTE1MSIgY2xhc3M9IiIgZGF0YS1zcG0tYW5jaG9yLWlkPSJhMzEzeC5zZWFyY2hfaW5kZXguMC5pNS42NGYzM2E4MWRtNXMzeCIgZD0iTTM4NS4xNTA4NDkgMzg1LjY2MjMzOGwtMTI4Ljg5NTEwNSAwIDAtMTUwLjM3NzYyMnEwLTQ5LjEwMjg5NyAxOS40MzY1NjMtOTEuNTU2NDQ0dDUzLjcwNjI5NC03NC42NzczMjMgODAuODE1MTg1LTUwLjYzNzM2MyAxMDEuNzg2MjE0LTE4LjQxMzU4NnE0OS4xMDI4OTcgMCA5NC42MjUzNzUgMTguNDEzNTg2dDgwLjgxNTE4NSA1MC42MzczNjMgNTYuMjYzNzM2IDc0LjY3NzMyMyAyMC45NzEwMjkgOTEuNTU2NDQ0bDAgMTUwLjM3NzYyMi0xMjMuNzgwMjIgMCAwLTEyMS43MzQyNjZxMC02NC40NDc1NTItMzUuODA0MTk2LTk5Ljc0MDI2dC05Ny4xODI4MTctMzUuMjkyNzA3cS01NS4yNDA3NTkgMC04OC45OTkwMDEgMzUuMjkyNzA3dC0zMy43NTgyNDIgOTkuNzQwMjZsMCAxMjEuNzM0MjY2ek04MjYuMDUzOTQ2IDQ0Ny4wNDA5NTlxMjcuNjIwMzggMCA0Ny41Njg0MzIgMTkuOTQ4MDUydDE5Ljk0ODA1MiA0Ny41Njg0MzJsMCAzMTcuMTIyODc3cTAgMjcuNjIwMzgtOS43MTgyODIgNTEuNjYwMzR0LTI2LjU5NzQwMyA0MS45NDIwNTgtMzkuODk2MTA0IDI4LjEzMTg2OC01MC42MzczNjMgMTAuMjI5NzdsLTUxNi42MDMzOTcgMHEtMjcuNjIwMzggMC01MC4xMjU4NzQtMTAuMjI5Nzd0LTM4LjM2MTYzOC0yNy4xMDg4OTEtMjQuNTUxNDQ5LTM5LjM4NDYxNS04LjY5NTMwNS00OC4wNzk5MmwwLTMyNC4yODM3MTZxMC0yNy42MjAzOCAxOS40MzY1NjMtNDcuNTY4NDMydDQ3LjA1Njk0My0xOS45NDgwNTJsNjEuMzc4NjIxIDAgMTI4Ljg5NTEwNSAwIDI1NS43NDQyNTYgMCAxMjMuNzgwMjIgMCA2MS4zNzg2MjEgMHoiLz48L3N2Zz4=;rounded=1;direction=east;" parent="1" vertex="1">
          <mxGeometry x="590" y="400" width="20" height="20" as="geometry" />
        </mxCell>
        <mxCell id="qx7kBC9LTjTg-VdTga5V-24" style="edgeStyle=orthogonalEdgeStyle;rounded=0;orthogonalLoop=1;jettySize=auto;html=1;exitX=0.5;exitY=0;exitDx=0;exitDy=0;" parent="1" source="qx7kBC9LTjTg-VdTga5V-16" edge="1">
          <mxGeometry relative="1" as="geometry">
            <mxPoint x="280" y="210" as="targetPoint" />
          </mxGeometry>
        </mxCell>
        <mxCell id="qx7kBC9LTjTg-VdTga5V-16" value="" style="rounded=1;whiteSpace=wrap;html=1;fillColor=#d5e8d4;strokeColor=#82b366;direction=east;" parent="1" vertex="1">
          <mxGeometry x="220" y="320" width="120" height="110" as="geometry" />
        </mxCell>
        <mxCell id="qx7kBC9LTjTg-VdTga5V-17" value="&lt;b&gt;CLIP&lt;/b&gt;" style="rounded=1;whiteSpace=wrap;html=1;direction=east;" parent="1" vertex="1">
          <mxGeometry x="230" y="336" width="100" height="80" as="geometry" />
        </mxCell>
        <mxCell id="qx7kBC9LTjTg-VdTga5V-19" value="" style="shape=image;verticalLabelPosition=bottom;verticalAlign=top;imageAspect=0;aspect=fixed;image=data:image/svg+xml,PHN2ZyB4bWxuczp4bGluaz0iaHR0cDovL3d3dy53My5vcmcvMTk5OS94bGluayIgeG1sbnM9Imh0dHA6Ly93d3cudzMub3JnLzIwMDAvc3ZnIiBoZWlnaHQ9IjIwMCIgd2lkdGg9IjIwMCIgdmVyc2lvbj0iMS4xIiB2aWV3Qm94PSIwIDAgMTAyNCAxMDI0IiBjbGFzcz0iaWNvbiI+PHBhdGggZmlsbD0iIzUxNTE1MSIgY2xhc3M9IiIgZGF0YS1zcG0tYW5jaG9yLWlkPSJhMzEzeC5zZWFyY2hfaW5kZXguMC5pNS42NGYzM2E4MWRtNXMzeCIgZD0iTTM4NS4xNTA4NDkgMzg1LjY2MjMzOGwtMTI4Ljg5NTEwNSAwIDAtMTUwLjM3NzYyMnEwLTQ5LjEwMjg5NyAxOS40MzY1NjMtOTEuNTU2NDQ0dDUzLjcwNjI5NC03NC42NzczMjMgODAuODE1MTg1LTUwLjYzNzM2MyAxMDEuNzg2MjE0LTE4LjQxMzU4NnE0OS4xMDI4OTcgMCA5NC42MjUzNzUgMTguNDEzNTg2dDgwLjgxNTE4NSA1MC42MzczNjMgNTYuMjYzNzM2IDc0LjY3NzMyMyAyMC45NzEwMjkgOTEuNTU2NDQ0bDAgMTUwLjM3NzYyMi0xMjMuNzgwMjIgMCAwLTEyMS43MzQyNjZxMC02NC40NDc1NTItMzUuODA0MTk2LTk5Ljc0MDI2dC05Ny4xODI4MTctMzUuMjkyNzA3cS01NS4yNDA3NTkgMC04OC45OTkwMDEgMzUuMjkyNzA3dC0zMy43NTgyNDIgOTkuNzQwMjZsMCAxMjEuNzM0MjY2ek04MjYuMDUzOTQ2IDQ0Ny4wNDA5NTlxMjcuNjIwMzggMCA0Ny41Njg0MzIgMTkuOTQ4MDUydDE5Ljk0ODA1MiA0Ny41Njg0MzJsMCAzMTcuMTIyODc3cTAgMjcuNjIwMzgtOS43MTgyODIgNTEuNjYwMzR0LTI2LjU5NzQwMyA0MS45NDIwNTgtMzkuODk2MTA0IDI4LjEzMTg2OC01MC42MzczNjMgMTAuMjI5NzdsLTUxNi42MDMzOTcgMHEtMjcuNjIwMzggMC01MC4xMjU4NzQtMTAuMjI5Nzd0LTM4LjM2MTYzOC0yNy4xMDg4OTEtMjQuNTUxNDQ5LTM5LjM4NDYxNS04LjY5NTMwNS00OC4wNzk5MmwwLTMyNC4yODM3MTZxMC0yNy42MjAzOCAxOS40MzY1NjMtNDcuNTY4NDMydDQ3LjA1Njk0My0xOS45NDgwNTJsNjEuMzc4NjIxIDAgMTI4Ljg5NTEwNSAwIDI1NS43NDQyNTYgMCAxMjMuNzgwMjIgMCA2MS4zNzg2MjEgMHoiLz48L3N2Zz4=;rounded=1;direction=east;" parent="1" vertex="1">
          <mxGeometry x="308" y="396" width="20" height="20" as="geometry" />
        </mxCell>
        <mxCell id="qx7kBC9LTjTg-VdTga5V-22" value="&lt;b&gt;机器翻译&lt;/b&gt;" style="text;html=1;strokeColor=none;fillColor=none;align=center;verticalAlign=middle;whiteSpace=wrap;rounded=0;" parent="1" vertex="1">
          <mxGeometry x="346" y="460" width="60" height="30" as="geometry" />
        </mxCell>
        <mxCell id="qx7kBC9LTjTg-VdTga5V-28" value="&lt;b&gt;Prompt&lt;/b&gt;" style="rounded=1;whiteSpace=wrap;html=1;direction=east;" parent="1" vertex="1">
          <mxGeometry x="421" y="470" width="90" height="30" as="geometry" />
        </mxCell>
        <mxCell id="qx7kBC9LTjTg-VdTga5V-30" style="edgeStyle=orthogonalEdgeStyle;rounded=0;orthogonalLoop=1;jettySize=auto;html=1;exitX=0.5;exitY=0;exitDx=0;exitDy=0;entryX=0.5;entryY=1;entryDx=0;entryDy=0;" parent="1" target="qx7kBC9LTjTg-VdTga5V-33" edge="1">
          <mxGeometry relative="1" as="geometry">
            <mxPoint x="706" y="470" as="sourcePoint" />
          </mxGeometry>
        </mxCell>
        <mxCell id="j2_JmPqvD5DsSTtETtJx-36" value="" style="edgeStyle=orthogonalEdgeStyle;rounded=0;orthogonalLoop=1;jettySize=auto;html=1;entryX=0.5;entryY=1;entryDx=0;entryDy=0;curved=0;" parent="1" edge="1">
          <mxGeometry relative="1" as="geometry">
            <mxPoint x="128" y="496" as="targetPoint" />
            <Array as="points">
              <mxPoint x="708" y="530" />
              <mxPoint x="128" y="530" />
            </Array>
            <mxPoint x="708" y="496" as="sourcePoint" />
          </mxGeometry>
        </mxCell>
        <mxCell id="qx7kBC9LTjTg-VdTga5V-31" value="&lt;font style=&quot;font-size: 17px;&quot;&gt;&lt;b&gt;干净中文&lt;/b&gt;&lt;/font&gt;" style="text;html=1;strokeColor=none;fillColor=none;align=center;verticalAlign=middle;whiteSpace=wrap;rounded=1;" parent="1" vertex="1">
          <mxGeometry x="678" y="467" width="70" height="30" as="geometry" />
        </mxCell>
        <mxCell id="qx7kBC9LTjTg-VdTga5V-32" style="edgeStyle=orthogonalEdgeStyle;rounded=0;orthogonalLoop=1;jettySize=auto;html=1;exitX=0.5;exitY=0;exitDx=0;exitDy=0;" parent="1" source="qx7kBC9LTjTg-VdTga5V-33" edge="1">
          <mxGeometry relative="1" as="geometry">
            <mxPoint x="706" y="210" as="targetPoint" />
          </mxGeometry>
        </mxCell>
        <mxCell id="qx7kBC9LTjTg-VdTga5V-33" value="" style="rounded=1;whiteSpace=wrap;html=1;fillColor=#d5e8d4;strokeColor=#82b366;direction=east;" parent="1" vertex="1">
          <mxGeometry x="646" y="260" width="120" height="170" as="geometry" />
        </mxCell>
        <mxCell id="xzxTGH6ZJ5_GRjk7ozEz-2" style="edgeStyle=orthogonalEdgeStyle;rounded=0;orthogonalLoop=1;jettySize=auto;html=1;exitX=0.5;exitY=0;exitDx=0;exitDy=0;entryX=0.5;entryY=1;entryDx=0;entryDy=0;" edge="1" parent="1" source="qx7kBC9LTjTg-VdTga5V-34" target="qx7kBC9LTjTg-VdTga5V-35">
          <mxGeometry relative="1" as="geometry" />
        </mxCell>
        <mxCell id="qx7kBC9LTjTg-VdTga5V-34" value="&lt;b&gt;CLIP&lt;/b&gt;" style="rounded=1;whiteSpace=wrap;html=1;direction=east;" parent="1" vertex="1">
          <mxGeometry x="656" y="340" width="100" height="80" as="geometry" />
        </mxCell>
        <mxCell id="qx7kBC9LTjTg-VdTga5V-35" value="&lt;b&gt;Adapter&lt;/b&gt;" style="rounded=1;whiteSpace=wrap;html=1;direction=east;" parent="1" vertex="1">
          <mxGeometry x="656" y="280" width="100" height="40" as="geometry" />
        </mxCell>
        <mxCell id="qx7kBC9LTjTg-VdTga5V-36" value="" style="shape=image;verticalLabelPosition=bottom;verticalAlign=top;imageAspect=0;aspect=fixed;image=data:image/svg+xml,PHN2ZyB4bWxuczp4bGluaz0iaHR0cDovL3d3dy53My5vcmcvMTk5OS94bGluayIgeG1sbnM9Imh0dHA6Ly93d3cudzMub3JnLzIwMDAvc3ZnIiBoZWlnaHQ9IjIwMCIgd2lkdGg9IjIwMCIgdmVyc2lvbj0iMS4xIiB2aWV3Qm94PSIwIDAgMTAyNCAxMDI0IiBjbGFzcz0iaWNvbiI+PHBhdGggZmlsbD0iIzUxNTE1MSIgY2xhc3M9IiIgZGF0YS1zcG0tYW5jaG9yLWlkPSJhMzEzeC5zZWFyY2hfaW5kZXguMC5pNS42NGYzM2E4MWRtNXMzeCIgZD0iTTM4NS4xNTA4NDkgMzg1LjY2MjMzOGwtMTI4Ljg5NTEwNSAwIDAtMTUwLjM3NzYyMnEwLTQ5LjEwMjg5NyAxOS40MzY1NjMtOTEuNTU2NDQ0dDUzLjcwNjI5NC03NC42NzczMjMgODAuODE1MTg1LTUwLjYzNzM2MyAxMDEuNzg2MjE0LTE4LjQxMzU4NnE0OS4xMDI4OTcgMCA5NC42MjUzNzUgMTguNDEzNTg2dDgwLjgxNTE4NSA1MC42MzczNjMgNTYuMjYzNzM2IDc0LjY3NzMyMyAyMC45NzEwMjkgOTEuNTU2NDQ0bDAgMTUwLjM3NzYyMi0xMjMuNzgwMjIgMCAwLTEyMS43MzQyNjZxMC02NC40NDc1NTItMzUuODA0MTk2LTk5Ljc0MDI2dC05Ny4xODI4MTctMzUuMjkyNzA3cS01NS4yNDA3NTkgMC04OC45OTkwMDEgMzUuMjkyNzA3dC0zMy43NTgyNDIgOTkuNzQwMjZsMCAxMjEuNzM0MjY2ek04MjYuMDUzOTQ2IDQ0Ny4wNDA5NTlxMjcuNjIwMzggMCA0Ny41Njg0MzIgMTkuOTQ4MDUydDE5Ljk0ODA1MiA0Ny41Njg0MzJsMCAzMTcuMTIyODc3cTAgMjcuNjIwMzgtOS43MTgyODIgNTEuNjYwMzR0LTI2LjU5NzQwMyA0MS45NDIwNTgtMzkuODk2MTA0IDI4LjEzMTg2OC01MC42MzczNjMgMTAuMjI5NzdsLTUxNi42MDMzOTcgMHEtMjcuNjIwMzggMC01MC4xMjU4NzQtMTAuMjI5Nzd0LTM4LjM2MTYzOC0yNy4xMDg4OTEtMjQuNTUxNDQ5LTM5LjM4NDYxNS04LjY5NTMwNS00OC4wNzk5MmwwLTMyNC4yODM3MTZxMC0yNy42MjAzOCAxOS40MzY1NjMtNDcuNTY4NDMydDQ3LjA1Njk0My0xOS45NDgwNTJsNjEuMzc4NjIxIDAgMTI4Ljg5NTEwNSAwIDI1NS43NDQyNTYgMCAxMjMuNzgwMjIgMCA2MS4zNzg2MjEgMHoiLz48L3N2Zz4=;rounded=1;direction=east;" parent="1" vertex="1">
          <mxGeometry x="736" y="400" width="20" height="20" as="geometry" />
        </mxCell>
        <mxCell id="qx7kBC9LTjTg-VdTga5V-37" value="" style="endArrow=classic;startArrow=classic;html=1;rounded=0;entryX=0;entryY=0.5;entryDx=0;entryDy=0;" parent="1" edge="1" target="j2_JmPqvD5DsSTtETtJx-43">
          <mxGeometry width="50" height="50" relative="1" as="geometry">
            <mxPoint x="328" y="197" as="sourcePoint" />
            <mxPoint x="578" y="197" as="targetPoint" />
          </mxGeometry>
        </mxCell>
        <mxCell id="qx7kBC9LTjTg-VdTga5V-39" value="" style="endArrow=classic;startArrow=classic;html=1;rounded=0;exitX=1;exitY=0.5;exitDx=0;exitDy=0;entryX=0;entryY=0.5;entryDx=0;entryDy=0;" parent="1" edge="1" target="j2_JmPqvD5DsSTtETtJx-44" source="j2_JmPqvD5DsSTtETtJx-43">
          <mxGeometry width="50" height="50" relative="1" as="geometry">
            <mxPoint x="661" y="196.91" as="sourcePoint" />
            <mxPoint x="741" y="196.91" as="targetPoint" />
          </mxGeometry>
        </mxCell>
        <mxCell id="qx7kBC9LTjTg-VdTga5V-40" value="&lt;b style=&quot;border-color: var(--border-color);&quot;&gt;Loss&lt;sub style=&quot;border-color: var(--border-color);&quot;&gt;stage1&lt;/sub&gt;&lt;/b&gt;&lt;b&gt;1&lt;/b&gt;" style="text;html=1;strokeColor=none;fillColor=none;align=center;verticalAlign=middle;whiteSpace=wrap;rounded=0;" parent="1" vertex="1">
          <mxGeometry x="411" y="174" width="60" height="30" as="geometry" />
        </mxCell>
        <mxCell id="qx7kBC9LTjTg-VdTga5V-41" value="&lt;b style=&quot;border-color: var(--border-color);&quot;&gt;Loss&lt;sub style=&quot;border-color: var(--border-color);&quot;&gt;stage1&lt;/sub&gt;&lt;/b&gt;&lt;b&gt;2&lt;/b&gt;" style="text;html=1;strokeColor=none;fillColor=none;align=center;verticalAlign=middle;whiteSpace=wrap;rounded=0;" parent="1" vertex="1">
          <mxGeometry x="610" y="174" width="60" height="30" as="geometry" />
        </mxCell>
        <mxCell id="j2_JmPqvD5DsSTtETtJx-26" style="edgeStyle=orthogonalEdgeStyle;rounded=0;orthogonalLoop=1;jettySize=auto;html=1;exitX=0.5;exitY=0;exitDx=0;exitDy=0;entryX=0.5;entryY=1;entryDx=0;entryDy=0;" parent="1" source="j2_JmPqvD5DsSTtETtJx-27" target="j2_JmPqvD5DsSTtETtJx-29" edge="1">
          <mxGeometry relative="1" as="geometry" />
        </mxCell>
        <mxCell id="j2_JmPqvD5DsSTtETtJx-27" value="&lt;font style=&quot;font-size: 17px;&quot;&gt;&lt;b&gt;噪声英文&lt;/b&gt;&lt;/font&gt;" style="text;html=1;strokeColor=none;fillColor=none;align=center;verticalAlign=middle;whiteSpace=wrap;rounded=1;" parent="1" vertex="1">
          <mxGeometry x="90" y="467" width="80" height="30" as="geometry" />
        </mxCell>
        <mxCell id="j2_JmPqvD5DsSTtETtJx-28" style="edgeStyle=orthogonalEdgeStyle;rounded=0;orthogonalLoop=1;jettySize=auto;html=1;exitX=0.5;exitY=0;exitDx=0;exitDy=0;" parent="1" source="j2_JmPqvD5DsSTtETtJx-29" edge="1">
          <mxGeometry relative="1" as="geometry">
            <mxPoint x="130" y="210" as="targetPoint" />
          </mxGeometry>
        </mxCell>
        <mxCell id="j2_JmPqvD5DsSTtETtJx-29" value="" style="rounded=1;whiteSpace=wrap;html=1;fillColor=#d5e8d4;strokeColor=#82b366;direction=east;" parent="1" vertex="1">
          <mxGeometry x="70" y="320" width="120" height="110" as="geometry" />
        </mxCell>
        <mxCell id="j2_JmPqvD5DsSTtETtJx-30" value="&lt;b&gt;CLIP&lt;/b&gt;" style="rounded=1;whiteSpace=wrap;html=1;direction=east;" parent="1" vertex="1">
          <mxGeometry x="80" y="336" width="100" height="80" as="geometry" />
        </mxCell>
        <mxCell id="j2_JmPqvD5DsSTtETtJx-31" value="" style="shape=image;verticalLabelPosition=bottom;verticalAlign=top;imageAspect=0;aspect=fixed;image=data:image/svg+xml,PHN2ZyB4bWxuczp4bGluaz0iaHR0cDovL3d3dy53My5vcmcvMTk5OS94bGluayIgeG1sbnM9Imh0dHA6Ly93d3cudzMub3JnLzIwMDAvc3ZnIiBoZWlnaHQ9IjIwMCIgd2lkdGg9IjIwMCIgdmVyc2lvbj0iMS4xIiB2aWV3Qm94PSIwIDAgMTAyNCAxMDI0IiBjbGFzcz0iaWNvbiI+PHBhdGggZmlsbD0iIzUxNTE1MSIgY2xhc3M9IiIgZGF0YS1zcG0tYW5jaG9yLWlkPSJhMzEzeC5zZWFyY2hfaW5kZXguMC5pNS42NGYzM2E4MWRtNXMzeCIgZD0iTTM4NS4xNTA4NDkgMzg1LjY2MjMzOGwtMTI4Ljg5NTEwNSAwIDAtMTUwLjM3NzYyMnEwLTQ5LjEwMjg5NyAxOS40MzY1NjMtOTEuNTU2NDQ0dDUzLjcwNjI5NC03NC42NzczMjMgODAuODE1MTg1LTUwLjYzNzM2MyAxMDEuNzg2MjE0LTE4LjQxMzU4NnE0OS4xMDI4OTcgMCA5NC42MjUzNzUgMTguNDEzNTg2dDgwLjgxNTE4NSA1MC42MzczNjMgNTYuMjYzNzM2IDc0LjY3NzMyMyAyMC45NzEwMjkgOTEuNTU2NDQ0bDAgMTUwLjM3NzYyMi0xMjMuNzgwMjIgMCAwLTEyMS43MzQyNjZxMC02NC40NDc1NTItMzUuODA0MTk2LTk5Ljc0MDI2dC05Ny4xODI4MTctMzUuMjkyNzA3cS01NS4yNDA3NTkgMC04OC45OTkwMDEgMzUuMjkyNzA3dC0zMy43NTgyNDIgOTkuNzQwMjZsMCAxMjEuNzM0MjY2ek04MjYuMDUzOTQ2IDQ0Ny4wNDA5NTlxMjcuNjIwMzggMCA0Ny41Njg0MzIgMTkuOTQ4MDUydDE5Ljk0ODA1MiA0Ny41Njg0MzJsMCAzMTcuMTIyODc3cTAgMjcuNjIwMzgtOS43MTgyODIgNTEuNjYwMzR0LTI2LjU5NzQwMyA0MS45NDIwNTgtMzkuODk2MTA0IDI4LjEzMTg2OC01MC42MzczNjMgMTAuMjI5NzdsLTUxNi42MDMzOTcgMHEtMjcuNjIwMzggMC01MC4xMjU4NzQtMTAuMjI5Nzd0LTM4LjM2MTYzOC0yNy4xMDg4OTEtMjQuNTUxNDQ5LTM5LjM4NDYxNS04LjY5NTMwNS00OC4wNzk5MmwwLTMyNC4yODM3MTZxMC0yNy42MjAzOCAxOS40MzY1NjMtNDcuNTY4NDMydDQ3LjA1Njk0My0xOS45NDgwNTJsNjEuMzc4NjIxIDAgMTI4Ljg5NTEwNSAwIDI1NS43NDQyNTYgMCAxMjMuNzgwMjIgMCA2MS4zNzg2MjEgMHoiLz48L3N2Zz4=;rounded=1;direction=east;" parent="1" vertex="1">
          <mxGeometry x="158" y="396" width="20" height="20" as="geometry" />
        </mxCell>
        <mxCell id="j2_JmPqvD5DsSTtETtJx-38" value="&lt;b&gt;&lt;font style=&quot;font-size: 16px;&quot;&gt;回译&lt;/font&gt;&lt;/b&gt;" style="text;html=1;strokeColor=none;fillColor=none;align=center;verticalAlign=middle;whiteSpace=wrap;rounded=0;" parent="1" vertex="1">
          <mxGeometry x="371" y="506" width="60" height="30" as="geometry" />
        </mxCell>
        <mxCell id="j2_JmPqvD5DsSTtETtJx-39" value="&lt;b&gt;Prompt&lt;/b&gt;" style="rounded=1;whiteSpace=wrap;html=1;direction=east;" parent="1" vertex="1">
          <mxGeometry x="9" y="467" width="81" height="30" as="geometry" />
        </mxCell>
        <mxCell id="j2_JmPqvD5DsSTtETtJx-40" value="" style="rounded=0;whiteSpace=wrap;html=1;fillColor=#dae8fc;strokeColor=#6c8ebf;" parent="1" vertex="1">
          <mxGeometry x="95" y="190" width="70" height="15" as="geometry" />
        </mxCell>
        <mxCell id="j2_JmPqvD5DsSTtETtJx-42" value="" style="rounded=0;whiteSpace=wrap;html=1;fillColor=#dae8fc;strokeColor=#6c8ebf;" parent="1" vertex="1">
          <mxGeometry x="250" y="190" width="70" height="15" as="geometry" />
        </mxCell>
        <mxCell id="j2_JmPqvD5DsSTtETtJx-43" value="" style="rounded=0;whiteSpace=wrap;html=1;fillColor=#dae8fc;strokeColor=#6c8ebf;" parent="1" vertex="1">
          <mxGeometry x="530" y="189" width="70" height="15" as="geometry" />
        </mxCell>
        <mxCell id="j2_JmPqvD5DsSTtETtJx-44" value="" style="rounded=0;whiteSpace=wrap;html=1;fillColor=#dae8fc;strokeColor=#6c8ebf;" parent="1" vertex="1">
          <mxGeometry x="671" y="189" width="70" height="15" as="geometry" />
        </mxCell>
        <mxCell id="j2_JmPqvD5DsSTtETtJx-47" value="" style="endArrow=classic;startArrow=classic;html=1;rounded=0;" parent="1" edge="1">
          <mxGeometry width="50" height="50" relative="1" as="geometry">
            <mxPoint x="167" y="197.91" as="sourcePoint" />
            <mxPoint x="247" y="197.91" as="targetPoint" />
          </mxGeometry>
        </mxCell>
        <mxCell id="j2_JmPqvD5DsSTtETtJx-48" value="&lt;b&gt;Loss&lt;sub&gt;stage1&lt;/sub&gt;3&lt;/b&gt;" style="text;html=1;strokeColor=none;fillColor=none;align=center;verticalAlign=middle;whiteSpace=wrap;rounded=0;" parent="1" vertex="1">
          <mxGeometry x="178" y="167" width="60" height="30" as="geometry" />
        </mxCell>
        <mxCell id="xzxTGH6ZJ5_GRjk7ozEz-36" style="edgeStyle=orthogonalEdgeStyle;rounded=0;orthogonalLoop=1;jettySize=auto;html=1;exitX=0.5;exitY=0;exitDx=0;exitDy=0;entryX=0.5;entryY=1;entryDx=0;entryDy=0;" edge="1" source="xzxTGH6ZJ5_GRjk7ozEz-38" target="xzxTGH6ZJ5_GRjk7ozEz-39" parent="1">
          <mxGeometry relative="1" as="geometry" />
        </mxCell>
        <mxCell id="xzxTGH6ZJ5_GRjk7ozEz-37" style="edgeStyle=orthogonalEdgeStyle;rounded=0;orthogonalLoop=1;jettySize=auto;html=1;entryX=0.5;entryY=1;entryDx=0;entryDy=0;" edge="1" source="xzxTGH6ZJ5_GRjk7ozEz-38" target="xzxTGH6ZJ5_GRjk7ozEz-66" parent="1">
          <mxGeometry relative="1" as="geometry">
            <Array as="points">
              <mxPoint x="745" y="1120" />
              <mxPoint x="311" y="1120" />
            </Array>
          </mxGeometry>
        </mxCell>
        <mxCell id="xzxTGH6ZJ5_GRjk7ozEz-38" value="&lt;font style=&quot;font-size: 17px;&quot;&gt;&lt;b&gt;噪声中文&lt;/b&gt;&lt;/font&gt;" style="text;html=1;strokeColor=none;fillColor=none;align=center;verticalAlign=middle;whiteSpace=wrap;rounded=1;" vertex="1" parent="1">
          <mxGeometry x="706" y="1064.5" width="80" height="30" as="geometry" />
        </mxCell>
        <mxCell id="xzxTGH6ZJ5_GRjk7ozEz-134" style="edgeStyle=orthogonalEdgeStyle;rounded=0;orthogonalLoop=1;jettySize=auto;html=1;exitX=0.5;exitY=0;exitDx=0;exitDy=0;entryX=0.5;entryY=1;entryDx=0;entryDy=0;" edge="1" parent="1" source="xzxTGH6ZJ5_GRjk7ozEz-39" target="xzxTGH6ZJ5_GRjk7ozEz-112">
          <mxGeometry relative="1" as="geometry" />
        </mxCell>
        <mxCell id="xzxTGH6ZJ5_GRjk7ozEz-39" value="" style="rounded=1;whiteSpace=wrap;html=1;fillColor=#d5e8d4;strokeColor=#82b366;direction=east;" vertex="1" parent="1">
          <mxGeometry x="686.5" y="870.5" width="120" height="170" as="geometry" />
        </mxCell>
        <mxCell id="xzxTGH6ZJ5_GRjk7ozEz-40" style="edgeStyle=orthogonalEdgeStyle;rounded=0;orthogonalLoop=1;jettySize=auto;html=1;exitX=0.5;exitY=0;exitDx=0;exitDy=0;entryX=0.5;entryY=1;entryDx=0;entryDy=0;" edge="1" source="xzxTGH6ZJ5_GRjk7ozEz-41" target="xzxTGH6ZJ5_GRjk7ozEz-42" parent="1">
          <mxGeometry relative="1" as="geometry" />
        </mxCell>
        <mxCell id="xzxTGH6ZJ5_GRjk7ozEz-41" value="&lt;b&gt;CLIP&lt;/b&gt;" style="rounded=1;whiteSpace=wrap;html=1;direction=east;" vertex="1" parent="1">
          <mxGeometry x="695" y="948.5" width="100" height="80" as="geometry" />
        </mxCell>
        <mxCell id="xzxTGH6ZJ5_GRjk7ozEz-42" value="&lt;b&gt;Adapter&lt;/b&gt;" style="rounded=1;whiteSpace=wrap;html=1;direction=east;" vertex="1" parent="1">
          <mxGeometry x="695" y="888.5" width="100" height="40" as="geometry" />
        </mxCell>
        <mxCell id="xzxTGH6ZJ5_GRjk7ozEz-43" value="" style="shape=image;verticalLabelPosition=bottom;verticalAlign=top;imageAspect=0;aspect=fixed;image=data:image/svg+xml,PHN2ZyB4bWxuczp4bGluaz0iaHR0cDovL3d3dy53My5vcmcvMTk5OS94bGluayIgeG1sbnM9Imh0dHA6Ly93d3cudzMub3JnLzIwMDAvc3ZnIiBoZWlnaHQ9IjIwMCIgd2lkdGg9IjIwMCIgdmVyc2lvbj0iMS4xIiB2aWV3Qm94PSIwIDAgMTAyNCAxMDI0IiBjbGFzcz0iaWNvbiI+PHBhdGggZmlsbD0iIzUxNTE1MSIgY2xhc3M9IiIgZGF0YS1zcG0tYW5jaG9yLWlkPSJhMzEzeC5zZWFyY2hfaW5kZXguMC5pNS42NGYzM2E4MWRtNXMzeCIgZD0iTTM4NS4xNTA4NDkgMzg1LjY2MjMzOGwtMTI4Ljg5NTEwNSAwIDAtMTUwLjM3NzYyMnEwLTQ5LjEwMjg5NyAxOS40MzY1NjMtOTEuNTU2NDQ0dDUzLjcwNjI5NC03NC42NzczMjMgODAuODE1MTg1LTUwLjYzNzM2MyAxMDEuNzg2MjE0LTE4LjQxMzU4NnE0OS4xMDI4OTcgMCA5NC42MjUzNzUgMTguNDEzNTg2dDgwLjgxNTE4NSA1MC42MzczNjMgNTYuMjYzNzM2IDc0LjY3NzMyMyAyMC45NzEwMjkgOTEuNTU2NDQ0bDAgMTUwLjM3NzYyMi0xMjMuNzgwMjIgMCAwLTEyMS43MzQyNjZxMC02NC40NDc1NTItMzUuODA0MTk2LTk5Ljc0MDI2dC05Ny4xODI4MTctMzUuMjkyNzA3cS01NS4yNDA3NTkgMC04OC45OTkwMDEgMzUuMjkyNzA3dC0zMy43NTgyNDIgOTkuNzQwMjZsMCAxMjEuNzM0MjY2ek04MjYuMDUzOTQ2IDQ0Ny4wNDA5NTlxMjcuNjIwMzggMCA0Ny41Njg0MzIgMTkuOTQ4MDUydDE5Ljk0ODA1MiA0Ny41Njg0MzJsMCAzMTcuMTIyODc3cTAgMjcuNjIwMzgtOS43MTgyODIgNTEuNjYwMzR0LTI2LjU5NzQwMyA0MS45NDIwNTgtMzkuODk2MTA0IDI4LjEzMTg2OC01MC42MzczNjMgMTAuMjI5NzdsLTUxNi42MDMzOTcgMHEtMjcuNjIwMzggMC01MC4xMjU4NzQtMTAuMjI5Nzd0LTM4LjM2MTYzOC0yNy4xMDg4OTEtMjQuNTUxNDQ5LTM5LjM4NDYxNS04LjY5NTMwNS00OC4wNzk5MmwwLTMyNC4yODM3MTZxMC0yNy42MjAzOCAxOS40MzY1NjMtNDcuNTY4NDMydDQ3LjA1Njk0My0xOS45NDgwNTJsNjEuMzc4NjIxIDAgMTI4Ljg5NTEwNSAwIDI1NS43NDQyNTYgMCAxMjMuNzgwMjIgMCA2MS4zNzg2MjEgMHoiLz48L3N2Zz4=;rounded=1;direction=east;" vertex="1" parent="1">
          <mxGeometry x="775" y="1006.5" width="20" height="20" as="geometry" />
        </mxCell>
        <mxCell id="xzxTGH6ZJ5_GRjk7ozEz-44" value="&lt;b&gt;Prompt&lt;/b&gt;" style="rounded=1;whiteSpace=wrap;html=1;direction=east;" vertex="1" parent="1">
          <mxGeometry x="610" y="1063.5" width="90" height="31" as="geometry" />
        </mxCell>
        <mxCell id="xzxTGH6ZJ5_GRjk7ozEz-57" style="edgeStyle=orthogonalEdgeStyle;rounded=0;orthogonalLoop=1;jettySize=auto;html=1;exitX=0.5;exitY=0;exitDx=0;exitDy=0;entryX=0.5;entryY=1;entryDx=0;entryDy=0;" edge="1" source="xzxTGH6ZJ5_GRjk7ozEz-59" target="xzxTGH6ZJ5_GRjk7ozEz-61" parent="1">
          <mxGeometry relative="1" as="geometry" />
        </mxCell>
        <mxCell id="xzxTGH6ZJ5_GRjk7ozEz-58" style="edgeStyle=orthogonalEdgeStyle;rounded=0;orthogonalLoop=1;jettySize=auto;html=1;entryX=0;entryY=0.5;entryDx=0;entryDy=0;" edge="1" source="xzxTGH6ZJ5_GRjk7ozEz-59" parent="1" target="xzxTGH6ZJ5_GRjk7ozEz-44">
          <mxGeometry relative="1" as="geometry">
            <mxPoint x="651" y="1109.5" as="targetPoint" />
          </mxGeometry>
        </mxCell>
        <mxCell id="xzxTGH6ZJ5_GRjk7ozEz-59" value="&lt;font style=&quot;font-size: 17px;&quot;&gt;&lt;b&gt;英文&lt;/b&gt;&lt;/font&gt;" style="text;html=1;strokeColor=none;fillColor=none;align=center;verticalAlign=middle;whiteSpace=wrap;rounded=1;" vertex="1" parent="1">
          <mxGeometry x="431" y="1063.5" width="60" height="30" as="geometry" />
        </mxCell>
        <mxCell id="xzxTGH6ZJ5_GRjk7ozEz-60" style="edgeStyle=orthogonalEdgeStyle;rounded=0;orthogonalLoop=1;jettySize=auto;html=1;exitX=0.5;exitY=0;exitDx=0;exitDy=0;" edge="1" source="xzxTGH6ZJ5_GRjk7ozEz-61" parent="1">
          <mxGeometry relative="1" as="geometry">
            <mxPoint x="461" y="834.5" as="targetPoint" />
          </mxGeometry>
        </mxCell>
        <mxCell id="xzxTGH6ZJ5_GRjk7ozEz-61" value="" style="rounded=1;whiteSpace=wrap;html=1;fillColor=#d5e8d4;strokeColor=#82b366;direction=east;" vertex="1" parent="1">
          <mxGeometry x="401" y="928.5" width="120" height="110" as="geometry" />
        </mxCell>
        <mxCell id="xzxTGH6ZJ5_GRjk7ozEz-62" value="&lt;b&gt;CLIP&lt;/b&gt;" style="rounded=1;whiteSpace=wrap;html=1;direction=east;" vertex="1" parent="1">
          <mxGeometry x="411" y="944.5" width="100" height="80" as="geometry" />
        </mxCell>
        <mxCell id="xzxTGH6ZJ5_GRjk7ozEz-63" value="" style="shape=image;verticalLabelPosition=bottom;verticalAlign=top;imageAspect=0;aspect=fixed;image=data:image/svg+xml,PHN2ZyB4bWxuczp4bGluaz0iaHR0cDovL3d3dy53My5vcmcvMTk5OS94bGluayIgeG1sbnM9Imh0dHA6Ly93d3cudzMub3JnLzIwMDAvc3ZnIiBoZWlnaHQ9IjIwMCIgd2lkdGg9IjIwMCIgdmVyc2lvbj0iMS4xIiB2aWV3Qm94PSIwIDAgMTAyNCAxMDI0IiBjbGFzcz0iaWNvbiI+PHBhdGggZmlsbD0iIzUxNTE1MSIgY2xhc3M9IiIgZGF0YS1zcG0tYW5jaG9yLWlkPSJhMzEzeC5zZWFyY2hfaW5kZXguMC5pNS42NGYzM2E4MWRtNXMzeCIgZD0iTTM4NS4xNTA4NDkgMzg1LjY2MjMzOGwtMTI4Ljg5NTEwNSAwIDAtMTUwLjM3NzYyMnEwLTQ5LjEwMjg5NyAxOS40MzY1NjMtOTEuNTU2NDQ0dDUzLjcwNjI5NC03NC42NzczMjMgODAuODE1MTg1LTUwLjYzNzM2MyAxMDEuNzg2MjE0LTE4LjQxMzU4NnE0OS4xMDI4OTcgMCA5NC42MjUzNzUgMTguNDEzNTg2dDgwLjgxNTE4NSA1MC42MzczNjMgNTYuMjYzNzM2IDc0LjY3NzMyMyAyMC45NzEwMjkgOTEuNTU2NDQ0bDAgMTUwLjM3NzYyMi0xMjMuNzgwMjIgMCAwLTEyMS43MzQyNjZxMC02NC40NDc1NTItMzUuODA0MTk2LTk5Ljc0MDI2dC05Ny4xODI4MTctMzUuMjkyNzA3cS01NS4yNDA3NTkgMC04OC45OTkwMDEgMzUuMjkyNzA3dC0zMy43NTgyNDIgOTkuNzQwMjZsMCAxMjEuNzM0MjY2ek04MjYuMDUzOTQ2IDQ0Ny4wNDA5NTlxMjcuNjIwMzggMCA0Ny41Njg0MzIgMTkuOTQ4MDUydDE5Ljk0ODA1MiA0Ny41Njg0MzJsMCAzMTcuMTIyODc3cTAgMjcuNjIwMzgtOS43MTgyODIgNTEuNjYwMzR0LTI2LjU5NzQwMyA0MS45NDIwNTgtMzkuODk2MTA0IDI4LjEzMTg2OC01MC42MzczNjMgMTAuMjI5NzdsLTUxNi42MDMzOTcgMHEtMjcuNjIwMzggMC01MC4xMjU4NzQtMTAuMjI5Nzd0LTM4LjM2MTYzOC0yNy4xMDg4OTEtMjQuNTUxNDQ5LTM5LjM4NDYxNS04LjY5NTMwNS00OC4wNzk5MmwwLTMyNC4yODM3MTZxMC0yNy42MjAzOCAxOS40MzY1NjMtNDcuNTY4NDMydDQ3LjA1Njk0My0xOS45NDgwNTJsNjEuMzc4NjIxIDAgMTI4Ljg5NTEwNSAwIDI1NS43NDQyNTYgMCAxMjMuNzgwMjIgMCA2MS4zNzg2MjEgMHoiLz48L3N2Zz4=;rounded=1;direction=east;" vertex="1" parent="1">
          <mxGeometry x="489" y="1004.5" width="20" height="20" as="geometry" />
        </mxCell>
        <mxCell id="xzxTGH6ZJ5_GRjk7ozEz-64" value="&lt;b&gt;&lt;font style=&quot;font-size: 14px;&quot;&gt;机器翻译&lt;/font&gt;&lt;/b&gt;" style="text;html=1;strokeColor=none;fillColor=none;align=center;verticalAlign=middle;whiteSpace=wrap;rounded=0;" vertex="1" parent="1">
          <mxGeometry x="521" y="1050" width="60" height="30" as="geometry" />
        </mxCell>
        <mxCell id="xzxTGH6ZJ5_GRjk7ozEz-65" style="edgeStyle=orthogonalEdgeStyle;rounded=0;orthogonalLoop=1;jettySize=auto;html=1;exitX=0.5;exitY=0;exitDx=0;exitDy=0;entryX=0.5;entryY=1;entryDx=0;entryDy=0;" edge="1" source="xzxTGH6ZJ5_GRjk7ozEz-66" target="xzxTGH6ZJ5_GRjk7ozEz-68" parent="1">
          <mxGeometry relative="1" as="geometry" />
        </mxCell>
        <mxCell id="xzxTGH6ZJ5_GRjk7ozEz-66" value="&lt;font style=&quot;font-size: 17px;&quot;&gt;&lt;b&gt;噪声英文&lt;/b&gt;&lt;/font&gt;" style="text;html=1;strokeColor=none;fillColor=none;align=center;verticalAlign=middle;whiteSpace=wrap;rounded=1;" vertex="1" parent="1">
          <mxGeometry x="271" y="1063" width="80" height="30" as="geometry" />
        </mxCell>
        <mxCell id="xzxTGH6ZJ5_GRjk7ozEz-67" style="edgeStyle=orthogonalEdgeStyle;rounded=0;orthogonalLoop=1;jettySize=auto;html=1;exitX=0.5;exitY=0;exitDx=0;exitDy=0;" edge="1" source="xzxTGH6ZJ5_GRjk7ozEz-68" parent="1">
          <mxGeometry relative="1" as="geometry">
            <mxPoint x="311" y="834.5" as="targetPoint" />
          </mxGeometry>
        </mxCell>
        <mxCell id="xzxTGH6ZJ5_GRjk7ozEz-68" value="" style="rounded=1;whiteSpace=wrap;html=1;fillColor=#d5e8d4;strokeColor=#82b366;direction=east;" vertex="1" parent="1">
          <mxGeometry x="251" y="930.5" width="120" height="110" as="geometry" />
        </mxCell>
        <mxCell id="xzxTGH6ZJ5_GRjk7ozEz-69" value="&lt;b&gt;CLIP&lt;/b&gt;" style="rounded=1;whiteSpace=wrap;html=1;direction=east;" vertex="1" parent="1">
          <mxGeometry x="261" y="946.5" width="100" height="80" as="geometry" />
        </mxCell>
        <mxCell id="xzxTGH6ZJ5_GRjk7ozEz-70" value="" style="shape=image;verticalLabelPosition=bottom;verticalAlign=top;imageAspect=0;aspect=fixed;image=data:image/svg+xml,PHN2ZyB4bWxuczp4bGluaz0iaHR0cDovL3d3dy53My5vcmcvMTk5OS94bGluayIgeG1sbnM9Imh0dHA6Ly93d3cudzMub3JnLzIwMDAvc3ZnIiBoZWlnaHQ9IjIwMCIgd2lkdGg9IjIwMCIgdmVyc2lvbj0iMS4xIiB2aWV3Qm94PSIwIDAgMTAyNCAxMDI0IiBjbGFzcz0iaWNvbiI+PHBhdGggZmlsbD0iIzUxNTE1MSIgY2xhc3M9IiIgZGF0YS1zcG0tYW5jaG9yLWlkPSJhMzEzeC5zZWFyY2hfaW5kZXguMC5pNS42NGYzM2E4MWRtNXMzeCIgZD0iTTM4NS4xNTA4NDkgMzg1LjY2MjMzOGwtMTI4Ljg5NTEwNSAwIDAtMTUwLjM3NzYyMnEwLTQ5LjEwMjg5NyAxOS40MzY1NjMtOTEuNTU2NDQ0dDUzLjcwNjI5NC03NC42NzczMjMgODAuODE1MTg1LTUwLjYzNzM2MyAxMDEuNzg2MjE0LTE4LjQxMzU4NnE0OS4xMDI4OTcgMCA5NC42MjUzNzUgMTguNDEzNTg2dDgwLjgxNTE4NSA1MC42MzczNjMgNTYuMjYzNzM2IDc0LjY3NzMyMyAyMC45NzEwMjkgOTEuNTU2NDQ0bDAgMTUwLjM3NzYyMi0xMjMuNzgwMjIgMCAwLTEyMS43MzQyNjZxMC02NC40NDc1NTItMzUuODA0MTk2LTk5Ljc0MDI2dC05Ny4xODI4MTctMzUuMjkyNzA3cS01NS4yNDA3NTkgMC04OC45OTkwMDEgMzUuMjkyNzA3dC0zMy43NTgyNDIgOTkuNzQwMjZsMCAxMjEuNzM0MjY2ek04MjYuMDUzOTQ2IDQ0Ny4wNDA5NTlxMjcuNjIwMzggMCA0Ny41Njg0MzIgMTkuOTQ4MDUydDE5Ljk0ODA1MiA0Ny41Njg0MzJsMCAzMTcuMTIyODc3cTAgMjcuNjIwMzgtOS43MTgyODIgNTEuNjYwMzR0LTI2LjU5NzQwMyA0MS45NDIwNTgtMzkuODk2MTA0IDI4LjEzMTg2OC01MC42MzczNjMgMTAuMjI5NzdsLTUxNi42MDMzOTcgMHEtMjcuNjIwMzggMC01MC4xMjU4NzQtMTAuMjI5Nzd0LTM4LjM2MTYzOC0yNy4xMDg4OTEtMjQuNTUxNDQ5LTM5LjM4NDYxNS04LjY5NTMwNS00OC4wNzk5MmwwLTMyNC4yODM3MTZxMC0yNy42MjAzOCAxOS40MzY1NjMtNDcuNTY4NDMydDQ3LjA1Njk0My0xOS45NDgwNTJsNjEuMzc4NjIxIDAgMTI4Ljg5NTEwNSAwIDI1NS43NDQyNTYgMCAxMjMuNzgwMjIgMCA2MS4zNzg2MjEgMHoiLz48L3N2Zz4=;rounded=1;direction=east;" vertex="1" parent="1">
          <mxGeometry x="339" y="1006.5" width="20" height="20" as="geometry" />
        </mxCell>
        <mxCell id="xzxTGH6ZJ5_GRjk7ozEz-71" value="Prompt" style="rounded=1;whiteSpace=wrap;html=1;direction=east;" vertex="1" parent="1">
          <mxGeometry x="190" y="1060" width="81" height="30" as="geometry" />
        </mxCell>
        <mxCell id="xzxTGH6ZJ5_GRjk7ozEz-76" value="&lt;b&gt;&lt;font style=&quot;font-size: 16px;&quot;&gt;回译&lt;/font&gt;&lt;/b&gt;" style="text;html=1;strokeColor=none;fillColor=none;align=center;verticalAlign=middle;whiteSpace=wrap;rounded=0;" vertex="1" parent="1">
          <mxGeometry x="489" y="1090" width="60" height="30" as="geometry" />
        </mxCell>
        <mxCell id="xzxTGH6ZJ5_GRjk7ozEz-110" value="" style="rounded=0;whiteSpace=wrap;html=1;fillColor=#dae8fc;strokeColor=#6c8ebf;" vertex="1" parent="1">
          <mxGeometry x="276.5" y="818" width="70" height="15" as="geometry" />
        </mxCell>
        <mxCell id="xzxTGH6ZJ5_GRjk7ozEz-111" value="" style="rounded=0;whiteSpace=wrap;html=1;fillColor=#dae8fc;strokeColor=#6c8ebf;" vertex="1" parent="1">
          <mxGeometry x="431.5" y="818" width="70" height="15" as="geometry" />
        </mxCell>
        <mxCell id="xzxTGH6ZJ5_GRjk7ozEz-112" value="" style="rounded=0;whiteSpace=wrap;html=1;fillColor=#dae8fc;strokeColor=#6c8ebf;" vertex="1" parent="1">
          <mxGeometry x="711.5" y="817" width="70" height="15" as="geometry" />
        </mxCell>
        <mxCell id="xzxTGH6ZJ5_GRjk7ozEz-116" value="" style="rounded=1;whiteSpace=wrap;html=1;fillColor=#d5e8d4;strokeColor=#82b366;direction=east;flipH=0;rotation=90;" vertex="1" parent="1">
          <mxGeometry x="346.5" y="673" width="79.5" height="92" as="geometry" />
        </mxCell>
        <mxCell id="xzxTGH6ZJ5_GRjk7ozEz-117" value="&lt;b&gt;CLIP&lt;/b&gt;" style="rounded=1;whiteSpace=wrap;html=1;direction=east;flipH=0;rotation=90;horizontal=0;" vertex="1" parent="1">
          <mxGeometry x="357.75" y="687.25" width="56" height="67" as="geometry" />
        </mxCell>
        <mxCell id="xzxTGH6ZJ5_GRjk7ozEz-118" value="" style="shape=image;verticalLabelPosition=bottom;verticalAlign=top;imageAspect=0;aspect=fixed;image=data:image/svg+xml,PHN2ZyB4bWxuczp4bGluaz0iaHR0cDovL3d3dy53My5vcmcvMTk5OS94bGluayIgeG1sbnM9Imh0dHA6Ly93d3cudzMub3JnLzIwMDAvc3ZnIiBoZWlnaHQ9IjIwMCIgd2lkdGg9IjIwMCIgdmVyc2lvbj0iMS4xIiB2aWV3Qm94PSIwIDAgMTAyNCAxMDI0IiBjbGFzcz0iaWNvbiI+PHBhdGggZmlsbD0iIzUxNTE1MSIgY2xhc3M9IiIgZGF0YS1zcG0tYW5jaG9yLWlkPSJhMzEzeC5zZWFyY2hfaW5kZXguMC5pNS42NGYzM2E4MWRtNXMzeCIgZD0iTTM4NS4xNTA4NDkgMzg1LjY2MjMzOGwtMTI4Ljg5NTEwNSAwIDAtMTUwLjM3NzYyMnEwLTQ5LjEwMjg5NyAxOS40MzY1NjMtOTEuNTU2NDQ0dDUzLjcwNjI5NC03NC42NzczMjMgODAuODE1MTg1LTUwLjYzNzM2MyAxMDEuNzg2MjE0LTE4LjQxMzU4NnE0OS4xMDI4OTcgMCA5NC42MjUzNzUgMTguNDEzNTg2dDgwLjgxNTE4NSA1MC42MzczNjMgNTYuMjYzNzM2IDc0LjY3NzMyMyAyMC45NzEwMjkgOTEuNTU2NDQ0bDAgMTUwLjM3NzYyMi0xMjMuNzgwMjIgMCAwLTEyMS43MzQyNjZxMC02NC40NDc1NTItMzUuODA0MTk2LTk5Ljc0MDI2dC05Ny4xODI4MTctMzUuMjkyNzA3cS01NS4yNDA3NTkgMC04OC45OTkwMDEgMzUuMjkyNzA3dC0zMy43NTgyNDIgOTkuNzQwMjZsMCAxMjEuNzM0MjY2ek04MjYuMDUzOTQ2IDQ0Ny4wNDA5NTlxMjcuNjIwMzggMCA0Ny41Njg0MzIgMTkuOTQ4MDUydDE5Ljk0ODA1MiA0Ny41Njg0MzJsMCAzMTcuMTIyODc3cTAgMjcuNjIwMzgtOS43MTgyODIgNTEuNjYwMzR0LTI2LjU5NzQwMyA0MS45NDIwNTgtMzkuODk2MTA0IDI4LjEzMTg2OC01MC42MzczNjMgMTAuMjI5NzdsLTUxNi42MDMzOTcgMHEtMjcuNjIwMzggMC01MC4xMjU4NzQtMTAuMjI5Nzd0LTM4LjM2MTYzOC0yNy4xMDg4OTEtMjQuNTUxNDQ5LTM5LjM4NDYxNS04LjY5NTMwNS00OC4wNzk5MmwwLTMyNC4yODM3MTZxMC0yNy42MjAzOCAxOS40MzY1NjMtNDcuNTY4NDMydDQ3LjA1Njk0My0xOS45NDgwNTJsNjEuMzc4NjIxIDAgMTI4Ljg5NTEwNSAwIDI1NS43NDQyNTYgMCAxMjMuNzgwMjIgMCA2MS4zNzg2MjEgMHoiLz48L3N2Zz4=;rounded=1;direction=east;flipH=0;rotation=0;" vertex="1" parent="1">
          <mxGeometry x="353.25" y="726.75" width="20" height="20" as="geometry" />
        </mxCell>
        <mxCell id="xzxTGH6ZJ5_GRjk7ozEz-119" value="" style="group;flipH=0;rotation=90;" vertex="1" connectable="0" parent="1">
          <mxGeometry x="211.5" y="691" width="96" height="40" as="geometry" />
        </mxCell>
        <mxCell id="xzxTGH6ZJ5_GRjk7ozEz-120" value="" style="shape=image;verticalLabelPosition=bottom;verticalAlign=top;imageAspect=0;aspect=fixed;image=data:image/jpeg,/9j/4AAQSkZJRgABAQAAAQABAAD/2wCEAAkGBw0NDw0NDQ0NDQ0NDQ0NDQ0NDQ8NDQ0NFREWFhURFRUYHSggGBomGxUVIj0hJSkrLi4uFx8zODMsNygtLisBCgoKDg0NFxAQFy0dHh0tKyswLS0tKy0tLS0tLS0tLSstLS0wKy0tLSstLS0tKy0tLS0tKysrLS0rLSstKy0tK//AABEIAK4BIgMBIgACEQEDEQH/xAAaAAEBAQADAQAAAAAAAAAAAAABAgAEBQYD/8QAORAAAgECAgYHBQcFAQAAAAAAAAECAxEEUQUSEyExQSJSYXGBkaEGMjNCsRQjU2Jy4fAVgpLB0UP/xAAZAQEBAQEBAQAAAAAAAAAAAAAAAQMCBAX/xAAhEQEBAQEAAQQCAwAAAAAAAAAAARECIQMTMUESUUJhsf/aAAwDAQACEQMRAD8AEKJE+o+IpCBkQUKAUFKEBQCiiRIKQolFBSUiUKAoSRCqFEoSCkKJKQUoQQkVSFEoQKQoEJFKEkpBSICQKEDAUZAIUoQQgYxjBXmUIIUbPMRAQFCgFAUKJFEVQoEICICiBRSJFBVISUUAiBx9IYl0acpx3zs40l+fPw4iTbhbk1yYvIpHmPZHHvp4Wo25XlOm5Pe298o/7PTIvfP43Dm7FCgFHLpSFEoURVCSIFIUSiiKRTAwVQkiBQghIMKAQpMBgPMlIlCbPOpCiRAoSUKApCSigFCCEilFEoQKElCQUikShQVRwMYtd9kVZf8ATmVHu7WfCSSTbdkk3J5JK7Z3z48uevPh5PSdGVGpGtTunGSd1mew0fi44inCrH5l0l1Zc0dDtIYuk5xXOUWnxWXmjj+zmMeHrSw83aFR9G/BT5M06n5T+445v4168pEijztyUiRQFCShIqhJQoCkKJEKpCSJFUJIgKEBRAmAQPMoUSJs86kICgEQQhSKBCAlIkUBQokURVCgEBRRKGX1Ehal73c4OlulHZL5rOfdyRzrpJt8jhuN7t8XxNOfnXF+MeZwFX7NXcJfDqdGXZkz76bwjXTjxjvuj66awestZcVexejK/wBoouEt9SmtV5uPJmlv8mc/TutA6Q+00Yyb+8haFRdvJ+J2KPEYDEvBYlN/CqdGa/K+fge3Tyd07NPNGPfOVvx1sUYBM3akJIgUhRKKRFKFEoUBSEkQqkJIkFGQIQpMBgPNCCE2eciAgIoBIKQkigqhAwFCgQgKKJKIqkHEzyM3ZX8jpy+dZ3dlwX1OLj6zpU5Sjvm1q01+Z8/A5UUcHEraN5LdHuOp8ub8Om0HiHKMsPUd5RvKDfGSe+S8zjybwtdVF7rdpLOPMNIUpUakasNzi7nY4ynHEUlUjwkr/plzRrfnfquPlOl8KqkNaO+61ovsOf7K6Q2tN0Jv7yiujfjKn+x1ug8RrRlh5+9C7h3c0cas5YSvCvDlLeuTXNeKObzs/F1Ll17lCfKhWjUjGpB3hOKlHuyPojzt1GMYiqQkiBQkoURShBCAigMFUKJEgowGA82hRJRswKFAICIIUAigFECICgpEBQFIuOZCLYhWJlvKvuJ/0dI+dZ7rLi/ofHVsfXi23/EEkVHWaQw6nF9x1eh6+znLDzdoz92/Kf7noakbo8/pjCtdOPFbzvm7Mri+LqNJUpUaka0Nzi0zscVCGJoqpHhNX/TLmvMmlUWKoqXzJas1+bM4mhq7pVJYee6NR9BvlPl58C/7Ec32UxzjKWEqPm5U79bnHxPUHiNLUJUpqtC6lGSd0et0ZjViKUKq4tWmspriZ+pP5Rr6d+q5YghMmhFEigpFAKIKMCEKUICQJgEBMBgPOIQQo2YEUAkFGAQpEBARQCgEpEouKIq45mM2ZFRmTPLzKYRXMololotksivlJHDxdFSTRzmfKaLK5seZwdb7NXtL4dToy7MmffTeEt048Y700fTTOE1k2uKHRWIVei6U/iUlZ5unyfga79s8+n3oVViqGs/fS1ai7c/E4+gcW8LXdGbtTqu2/gpcmcbCVXha7Uvh1OjLsT5+BydN4O6148VvTXMZPj6q79vYCdV7PaQ+0UVrP7ynaE83kztEeezLjeXZqhBCRSZBcUAoQEikUSIFGAQpMBgPOIQQmrAiAgUJIgIgJFIoBQFI+sVZdrPnBeR9GwMJkjWKMlcqxtaWfoGtLM51Q0Qz6azzNdhXwZ85HKJaWSLqY63ERumeYxFZ4OtGsvdT6S5OPNeR7eUI9VeRx62Eoy96jTl+qKZ1Osc5NdLpTDxrU1UptOMoqUJLmmi9EYnbUnSn8Skrb+LhyOxnQhGOpCMYRXCMVZLuR5zESlha0a0fdv0lnHmjuXZjmzK++GrvBYlT37OW6azg+Pij20ZJ2ad00mmuDT4M8rpOhGtTU4WaktaLOX7J6Qc4PDTfTpXcL8XT5x8CdzZq8XLj0KFEoTBsoyBCAiBgKMAhSIGIExjAedQlbGfVY7GfVZqxSJWxn1WOxn1WBIodjPqsdjPqsAMitjPqsdjPqsCSkKoz6rPrRoyvvVrZkVoqw3371dH1VLt9A2XavIauBVV1PU22XU9TOi815BKnZNuSst7dtyRFO2XU9TbVdT1OywuhozipbbXT3rZWcbd5yo6HoLipvvkzO+py0npd10W0XV9Ta66vqegWjMP+EvFtlf0+h+FD1J7vLr2Ov289rLq+obuqej/p9D8KAPRtD8KPhcnu8nsdft53VWRLpxPQy0XQfytd0mfKehYP3JzT7lMvu8pfR6dBLDxeZwMboalWTUpTV8rXO+xeAnSlqSabsmmuaZ8HQkazplebK6TB6NWHpbFVJ1IJtx17Xiny3cjpcXrYWtCvD5ZXfb/EewnhZPhbzR1ektEVasWlFO+ckjTnrHHXNvl3GFxEasIVYe7OOsuzNH2PP+y2Dx2HdSjXpfct61OpGpGajLJq+49EqcsmZ3NaQIUOzlkzKnLJkGQm2csmOzlkyKxkOzlkx2csmACbZyyY7OWTABNqSyZgrr7DYtIbFcIsNirDYaJsaxdjJE0xNhSKsNhqosNi7GsNMTY1i0hGmPlKL5HXaRjiNWWySbaatmsjtzFnWJedeRwuIlSdmqtCXNNSh6rcd9gtK1dyWIb/ALlI59vIl4em+NOD/sic9ZXfNvLk0NIVX8yfgjm08VN5eR1McNSX/nFd10fWNOC4K3c5f9M7xGs9Wu6hUb4pH2i+xHSRt2/5SK1l/Gzn23c9V3qaXHVXeEsTBcZxXYt/0Ok11kvqZ1Xy3d24e2X1n10lKM56yv7qW/c2cJoqbuBrPEefrzdFg1S0hSLqY0YlJCkJFwWGwmCtYwmA1hMIBYbGEAsYTEHVWGwmO3DWMkKMQawmEKBMIAJhAxhMBjWEQosYTEGRjGATGRgMYxgMJhQGSFIwoKUIISBMYwGExgMJjBSYxiBMBgP/2Q==;imageBorder=default;rotation=90;direction=south;" vertex="1" parent="xzxTGH6ZJ5_GRjk7ozEz-119">
          <mxGeometry x="42.289240506329115" y="0.0007594936708859024" width="33.41772151898734" height="55.69620253164557" as="geometry" />
        </mxCell>
        <mxCell id="xzxTGH6ZJ5_GRjk7ozEz-121" value="" style="shape=image;verticalLabelPosition=bottom;verticalAlign=top;imageAspect=0;aspect=fixed;image=data:image/jpeg,/9j/4AAQSkZJRgABAQAAAQABAAD/2wCEAAkGBw0NDw0NDQ0NDQ0NDQ0NDQ0NDQ8NDQ0NFREWFhURFRUYHSggGBomGxUVIj0hJSkrLi4uFx8zODMsNygtLisBCgoKDg0NFxAQFy0dHh0tKyswLS0tKy0tLS0tLS0tLSstLS0wKy0tLSstLS0tKy0tLS0tKysrLS0rLSstKy0tK//AABEIAK4BIgMBIgACEQEDEQH/xAAaAAEBAQADAQAAAAAAAAAAAAABAgAEBQYD/8QAORAAAgECAgYHBQcFAQAAAAAAAAECAxEEUQUSEyExQSJSYXGBkaEGMjNCsRQjU2Jy4fAVgpLB0UP/xAAZAQEBAQEBAQAAAAAAAAAAAAAAAQMCBAX/xAAhEQEBAQEAAQQCAwAAAAAAAAAAARECIQMTMUESUUJhsf/aAAwDAQACEQMRAD8AEKJE+o+IpCBkQUKAUFKEBQCiiRIKQolFBSUiUKAoSRCqFEoSCkKJKQUoQQkVSFEoQKQoEJFKEkpBSICQKEDAUZAIUoQQgYxjBXmUIIUbPMRAQFCgFAUKJFEVQoEICICiBRSJFBVISUUAiBx9IYl0acpx3zs40l+fPw4iTbhbk1yYvIpHmPZHHvp4Wo25XlOm5Pe298o/7PTIvfP43Dm7FCgFHLpSFEoURVCSIFIUSiiKRTAwVQkiBQghIMKAQpMBgPMlIlCbPOpCiRAoSUKApCSigFCCEilFEoQKElCQUikShQVRwMYtd9kVZf8ATmVHu7WfCSSTbdkk3J5JK7Z3z48uevPh5PSdGVGpGtTunGSd1mew0fi44inCrH5l0l1Zc0dDtIYuk5xXOUWnxWXmjj+zmMeHrSw83aFR9G/BT5M06n5T+445v4168pEijztyUiRQFCShIqhJQoCkKJEKpCSJFUJIgKEBRAmAQPMoUSJs86kICgEQQhSKBCAlIkUBQokURVCgEBRRKGX1Ehal73c4OlulHZL5rOfdyRzrpJt8jhuN7t8XxNOfnXF+MeZwFX7NXcJfDqdGXZkz76bwjXTjxjvuj66awestZcVexejK/wBoouEt9SmtV5uPJmlv8mc/TutA6Q+00Yyb+8haFRdvJ+J2KPEYDEvBYlN/CqdGa/K+fge3Tyd07NPNGPfOVvx1sUYBM3akJIgUhRKKRFKFEoUBSEkQqkJIkFGQIQpMBgPNCCE2eciAgIoBIKQkigqhAwFCgQgKKJKIqkHEzyM3ZX8jpy+dZ3dlwX1OLj6zpU5Sjvm1q01+Z8/A5UUcHEraN5LdHuOp8ub8Om0HiHKMsPUd5RvKDfGSe+S8zjybwtdVF7rdpLOPMNIUpUakasNzi7nY4ynHEUlUjwkr/plzRrfnfquPlOl8KqkNaO+61ovsOf7K6Q2tN0Jv7yiujfjKn+x1ug8RrRlh5+9C7h3c0cas5YSvCvDlLeuTXNeKObzs/F1Ll17lCfKhWjUjGpB3hOKlHuyPojzt1GMYiqQkiBQkoURShBCAigMFUKJEgowGA82hRJRswKFAICIIUAigFECICgpEBQFIuOZCLYhWJlvKvuJ/0dI+dZ7rLi/ofHVsfXi23/EEkVHWaQw6nF9x1eh6+znLDzdoz92/Kf7noakbo8/pjCtdOPFbzvm7Mri+LqNJUpUaka0Nzi0zscVCGJoqpHhNX/TLmvMmlUWKoqXzJas1+bM4mhq7pVJYee6NR9BvlPl58C/7Ec32UxzjKWEqPm5U79bnHxPUHiNLUJUpqtC6lGSd0et0ZjViKUKq4tWmspriZ+pP5Rr6d+q5YghMmhFEigpFAKIKMCEKUICQJgEBMBgPOIQQo2YEUAkFGAQpEBARQCgEpEouKIq45mM2ZFRmTPLzKYRXMololotksivlJHDxdFSTRzmfKaLK5seZwdb7NXtL4dToy7MmffTeEt048Y700fTTOE1k2uKHRWIVei6U/iUlZ5unyfga79s8+n3oVViqGs/fS1ai7c/E4+gcW8LXdGbtTqu2/gpcmcbCVXha7Uvh1OjLsT5+BydN4O6148VvTXMZPj6q79vYCdV7PaQ+0UVrP7ynaE83kztEeezLjeXZqhBCRSZBcUAoQEikUSIFGAQpMBgPOIQQmrAiAgUJIgIgJFIoBQFI+sVZdrPnBeR9GwMJkjWKMlcqxtaWfoGtLM51Q0Qz6azzNdhXwZ85HKJaWSLqY63ERumeYxFZ4OtGsvdT6S5OPNeR7eUI9VeRx62Eoy96jTl+qKZ1Osc5NdLpTDxrU1UptOMoqUJLmmi9EYnbUnSn8Skrb+LhyOxnQhGOpCMYRXCMVZLuR5zESlha0a0fdv0lnHmjuXZjmzK++GrvBYlT37OW6azg+Pij20ZJ2ad00mmuDT4M8rpOhGtTU4WaktaLOX7J6Qc4PDTfTpXcL8XT5x8CdzZq8XLj0KFEoTBsoyBCAiBgKMAhSIGIExjAedQlbGfVY7GfVZqxSJWxn1WOxn1WBIodjPqsdjPqsAMitjPqsdjPqsCSkKoz6rPrRoyvvVrZkVoqw3371dH1VLt9A2XavIauBVV1PU22XU9TOi815BKnZNuSst7dtyRFO2XU9TbVdT1OywuhozipbbXT3rZWcbd5yo6HoLipvvkzO+py0npd10W0XV9Ta66vqegWjMP+EvFtlf0+h+FD1J7vLr2Ov289rLq+obuqej/p9D8KAPRtD8KPhcnu8nsdft53VWRLpxPQy0XQfytd0mfKehYP3JzT7lMvu8pfR6dBLDxeZwMboalWTUpTV8rXO+xeAnSlqSabsmmuaZ8HQkazplebK6TB6NWHpbFVJ1IJtx17Xiny3cjpcXrYWtCvD5ZXfb/EewnhZPhbzR1ektEVasWlFO+ckjTnrHHXNvl3GFxEasIVYe7OOsuzNH2PP+y2Dx2HdSjXpfct61OpGpGajLJq+49EqcsmZ3NaQIUOzlkzKnLJkGQm2csmOzlkyKxkOzlkx2csmACbZyyY7OWTABNqSyZgrr7DYtIbFcIsNirDYaJsaxdjJE0xNhSKsNhqosNi7GsNMTY1i0hGmPlKL5HXaRjiNWWySbaatmsjtzFnWJedeRwuIlSdmqtCXNNSh6rcd9gtK1dyWIb/ALlI59vIl4em+NOD/sic9ZXfNvLk0NIVX8yfgjm08VN5eR1McNSX/nFd10fWNOC4K3c5f9M7xGs9Wu6hUb4pH2i+xHSRt2/5SK1l/Gzn23c9V3qaXHVXeEsTBcZxXYt/0Ok11kvqZ1Xy3d24e2X1n10lKM56yv7qW/c2cJoqbuBrPEefrzdFg1S0hSLqY0YlJCkJFwWGwmCtYwmA1hMIBYbGEAsYTEHVWGwmO3DWMkKMQawmEKBMIAJhAxhMBjWEQosYTEGRjGATGRgMYxgMJhQGSFIwoKUIISBMYwGExgMJjBSYxiBMBgP/2Q==;imageBorder=default;rotation=90;direction=south;" vertex="1" parent="xzxTGH6ZJ5_GRjk7ozEz-119">
          <mxGeometry x="39.28924050632911" y="5.000759493670886" width="33.41772151898734" height="55.69620253164557" as="geometry" />
        </mxCell>
        <mxCell id="xzxTGH6ZJ5_GRjk7ozEz-122" value="" style="shape=image;verticalLabelPosition=bottom;verticalAlign=top;imageAspect=0;aspect=fixed;image=data:image/jpeg,/9j/4AAQSkZJRgABAQAAAQABAAD/2wCEAAkGBw0NDw0NDQ0NDQ0NDQ0NDQ0NDQ8NDQ0NFREWFhURFRUYHSggGBomGxUVIj0hJSkrLi4uFx8zODMsNygtLisBCgoKDg0NFxAQFy0dHh0tKyswLS0tKy0tLS0tLS0tLSstLS0wKy0tLSstLS0tKy0tLS0tKysrLS0rLSstKy0tK//AABEIAK4BIgMBIgACEQEDEQH/xAAaAAEBAQADAQAAAAAAAAAAAAABAgAEBQYD/8QAORAAAgECAgYHBQcFAQAAAAAAAAECAxEEUQUSEyExQSJSYXGBkaEGMjNCsRQjU2Jy4fAVgpLB0UP/xAAZAQEBAQEBAQAAAAAAAAAAAAAAAQMCBAX/xAAhEQEBAQEAAQQCAwAAAAAAAAAAARECIQMTMUESUUJhsf/aAAwDAQACEQMRAD8AEKJE+o+IpCBkQUKAUFKEBQCiiRIKQolFBSUiUKAoSRCqFEoSCkKJKQUoQQkVSFEoQKQoEJFKEkpBSICQKEDAUZAIUoQQgYxjBXmUIIUbPMRAQFCgFAUKJFEVQoEICICiBRSJFBVISUUAiBx9IYl0acpx3zs40l+fPw4iTbhbk1yYvIpHmPZHHvp4Wo25XlOm5Pe298o/7PTIvfP43Dm7FCgFHLpSFEoURVCSIFIUSiiKRTAwVQkiBQghIMKAQpMBgPMlIlCbPOpCiRAoSUKApCSigFCCEilFEoQKElCQUikShQVRwMYtd9kVZf8ATmVHu7WfCSSTbdkk3J5JK7Z3z48uevPh5PSdGVGpGtTunGSd1mew0fi44inCrH5l0l1Zc0dDtIYuk5xXOUWnxWXmjj+zmMeHrSw83aFR9G/BT5M06n5T+445v4168pEijztyUiRQFCShIqhJQoCkKJEKpCSJFUJIgKEBRAmAQPMoUSJs86kICgEQQhSKBCAlIkUBQokURVCgEBRRKGX1Ehal73c4OlulHZL5rOfdyRzrpJt8jhuN7t8XxNOfnXF+MeZwFX7NXcJfDqdGXZkz76bwjXTjxjvuj66awestZcVexejK/wBoouEt9SmtV5uPJmlv8mc/TutA6Q+00Yyb+8haFRdvJ+J2KPEYDEvBYlN/CqdGa/K+fge3Tyd07NPNGPfOVvx1sUYBM3akJIgUhRKKRFKFEoUBSEkQqkJIkFGQIQpMBgPNCCE2eciAgIoBIKQkigqhAwFCgQgKKJKIqkHEzyM3ZX8jpy+dZ3dlwX1OLj6zpU5Sjvm1q01+Z8/A5UUcHEraN5LdHuOp8ub8Om0HiHKMsPUd5RvKDfGSe+S8zjybwtdVF7rdpLOPMNIUpUakasNzi7nY4ynHEUlUjwkr/plzRrfnfquPlOl8KqkNaO+61ovsOf7K6Q2tN0Jv7yiujfjKn+x1ug8RrRlh5+9C7h3c0cas5YSvCvDlLeuTXNeKObzs/F1Ll17lCfKhWjUjGpB3hOKlHuyPojzt1GMYiqQkiBQkoURShBCAigMFUKJEgowGA82hRJRswKFAICIIUAigFECICgpEBQFIuOZCLYhWJlvKvuJ/0dI+dZ7rLi/ofHVsfXi23/EEkVHWaQw6nF9x1eh6+znLDzdoz92/Kf7noakbo8/pjCtdOPFbzvm7Mri+LqNJUpUaka0Nzi0zscVCGJoqpHhNX/TLmvMmlUWKoqXzJas1+bM4mhq7pVJYee6NR9BvlPl58C/7Ec32UxzjKWEqPm5U79bnHxPUHiNLUJUpqtC6lGSd0et0ZjViKUKq4tWmspriZ+pP5Rr6d+q5YghMmhFEigpFAKIKMCEKUICQJgEBMBgPOIQQo2YEUAkFGAQpEBARQCgEpEouKIq45mM2ZFRmTPLzKYRXMololotksivlJHDxdFSTRzmfKaLK5seZwdb7NXtL4dToy7MmffTeEt048Y700fTTOE1k2uKHRWIVei6U/iUlZ5unyfga79s8+n3oVViqGs/fS1ai7c/E4+gcW8LXdGbtTqu2/gpcmcbCVXha7Uvh1OjLsT5+BydN4O6148VvTXMZPj6q79vYCdV7PaQ+0UVrP7ynaE83kztEeezLjeXZqhBCRSZBcUAoQEikUSIFGAQpMBgPOIQQmrAiAgUJIgIgJFIoBQFI+sVZdrPnBeR9GwMJkjWKMlcqxtaWfoGtLM51Q0Qz6azzNdhXwZ85HKJaWSLqY63ERumeYxFZ4OtGsvdT6S5OPNeR7eUI9VeRx62Eoy96jTl+qKZ1Osc5NdLpTDxrU1UptOMoqUJLmmi9EYnbUnSn8Skrb+LhyOxnQhGOpCMYRXCMVZLuR5zESlha0a0fdv0lnHmjuXZjmzK++GrvBYlT37OW6azg+Pij20ZJ2ad00mmuDT4M8rpOhGtTU4WaktaLOX7J6Qc4PDTfTpXcL8XT5x8CdzZq8XLj0KFEoTBsoyBCAiBgKMAhSIGIExjAedQlbGfVY7GfVZqxSJWxn1WOxn1WBIodjPqsdjPqsAMitjPqsdjPqsCSkKoz6rPrRoyvvVrZkVoqw3371dH1VLt9A2XavIauBVV1PU22XU9TOi815BKnZNuSst7dtyRFO2XU9TbVdT1OywuhozipbbXT3rZWcbd5yo6HoLipvvkzO+py0npd10W0XV9Ta66vqegWjMP+EvFtlf0+h+FD1J7vLr2Ov289rLq+obuqej/p9D8KAPRtD8KPhcnu8nsdft53VWRLpxPQy0XQfytd0mfKehYP3JzT7lMvu8pfR6dBLDxeZwMboalWTUpTV8rXO+xeAnSlqSabsmmuaZ8HQkazplebK6TB6NWHpbFVJ1IJtx17Xiny3cjpcXrYWtCvD5ZXfb/EewnhZPhbzR1ektEVasWlFO+ckjTnrHHXNvl3GFxEasIVYe7OOsuzNH2PP+y2Dx2HdSjXpfct61OpGpGajLJq+49EqcsmZ3NaQIUOzlkzKnLJkGQm2csmOzlkyKxkOzlkx2csmACbZyyY7OWTABNqSyZgrr7DYtIbFcIsNirDYaJsaxdjJE0xNhSKsNhqosNi7GsNMTY1i0hGmPlKL5HXaRjiNWWySbaatmsjtzFnWJedeRwuIlSdmqtCXNNSh6rcd9gtK1dyWIb/ALlI59vIl4em+NOD/sic9ZXfNvLk0NIVX8yfgjm08VN5eR1McNSX/nFd10fWNOC4K3c5f9M7xGs9Wu6hUb4pH2i+xHSRt2/5SK1l/Gzn23c9V3qaXHVXeEsTBcZxXYt/0Ok11kvqZ1Xy3d24e2X1n10lKM56yv7qW/c2cJoqbuBrPEefrzdFg1S0hSLqY0YlJCkJFwWGwmCtYwmA1hMIBYbGEAsYTEHVWGwmO3DWMkKMQawmEKBMIAJhAxhMBjWEQosYTEGRjGATGRgMYxgMJhQGSFIwoKUIISBMYwGExgMJjBSYxiBMBgP/2Q==;imageBorder=default;rotation=90;direction=south;" vertex="1" parent="xzxTGH6ZJ5_GRjk7ozEz-119">
          <mxGeometry x="36.28924050632911" y="12.000759493670886" width="33.41772151898734" height="55.69620253164557" as="geometry" />
        </mxCell>
        <mxCell id="xzxTGH6ZJ5_GRjk7ozEz-123" value="" style="endArrow=classic;html=1;rounded=0;entryX=0.5;entryY=1;entryDx=0;entryDy=0;" edge="1" parent="1" target="xzxTGH6ZJ5_GRjk7ozEz-116">
          <mxGeometry width="50" height="50" relative="1" as="geometry">
            <mxPoint x="299.5" y="719" as="sourcePoint" />
            <mxPoint x="314.5" y="701" as="targetPoint" />
          </mxGeometry>
        </mxCell>
        <mxCell id="xzxTGH6ZJ5_GRjk7ozEz-124" value="" style="rounded=0;whiteSpace=wrap;html=1;fillColor=#dae8fc;strokeColor=#6c8ebf;" vertex="1" parent="1">
          <mxGeometry x="471.5" y="758" width="70" height="15" as="geometry" />
        </mxCell>
        <mxCell id="xzxTGH6ZJ5_GRjk7ozEz-125" value="" style="curved=1;endArrow=classic;html=1;rounded=0;entryX=0.5;entryY=1;entryDx=0;entryDy=0;startArrow=classic;startFill=1;" edge="1" parent="1" target="xzxTGH6ZJ5_GRjk7ozEz-124">
          <mxGeometry width="50" height="50" relative="1" as="geometry">
            <mxPoint x="311.5" y="818" as="sourcePoint" />
            <mxPoint x="361.5" y="768" as="targetPoint" />
            <Array as="points">
              <mxPoint x="351.5" y="788" />
              <mxPoint x="481.5" y="788" />
            </Array>
          </mxGeometry>
        </mxCell>
        <mxCell id="xzxTGH6ZJ5_GRjk7ozEz-126" value="" style="curved=1;endArrow=classic;html=1;rounded=0;entryX=0.5;entryY=1;entryDx=0;entryDy=0;exitX=0.5;exitY=0;exitDx=0;exitDy=0;startArrow=classic;startFill=1;" edge="1" parent="1" source="xzxTGH6ZJ5_GRjk7ozEz-111" target="xzxTGH6ZJ5_GRjk7ozEz-124">
          <mxGeometry width="50" height="50" relative="1" as="geometry">
            <mxPoint x="461.5" y="848" as="sourcePoint" />
            <mxPoint x="511.5" y="798" as="targetPoint" />
            <Array as="points">
              <mxPoint x="481.5" y="798" />
              <mxPoint x="501.5" y="798" />
            </Array>
          </mxGeometry>
        </mxCell>
        <mxCell id="xzxTGH6ZJ5_GRjk7ozEz-127" value="" style="curved=1;endArrow=classic;html=1;rounded=0;exitX=0.5;exitY=0;exitDx=0;exitDy=0;entryX=0.5;entryY=1;entryDx=0;entryDy=0;startArrow=classic;startFill=1;" edge="1" parent="1" source="xzxTGH6ZJ5_GRjk7ozEz-112" target="xzxTGH6ZJ5_GRjk7ozEz-124">
          <mxGeometry width="50" height="50" relative="1" as="geometry">
            <mxPoint x="721.5" y="798" as="sourcePoint" />
            <mxPoint x="771.5" y="748" as="targetPoint" />
            <Array as="points">
              <mxPoint x="711.5" y="798" />
              <mxPoint x="551.5" y="798" />
            </Array>
          </mxGeometry>
        </mxCell>
        <mxCell id="xzxTGH6ZJ5_GRjk7ozEz-128" style="edgeStyle=orthogonalEdgeStyle;rounded=0;orthogonalLoop=1;jettySize=auto;html=1;exitX=0.5;exitY=0;exitDx=0;exitDy=0;entryX=0.5;entryY=0;entryDx=0;entryDy=0;" edge="1" parent="1" source="xzxTGH6ZJ5_GRjk7ozEz-116" target="xzxTGH6ZJ5_GRjk7ozEz-124">
          <mxGeometry relative="1" as="geometry" />
        </mxCell>
        <mxCell id="xzxTGH6ZJ5_GRjk7ozEz-129" value="&lt;b&gt;Loss&lt;sub&gt;stage2&lt;/sub&gt;3&lt;/b&gt;" style="text;html=1;strokeColor=none;fillColor=none;align=center;verticalAlign=middle;whiteSpace=wrap;rounded=0;" vertex="1" parent="1">
          <mxGeometry x="359.5" y="765" width="60" height="30" as="geometry" />
        </mxCell>
        <mxCell id="xzxTGH6ZJ5_GRjk7ozEz-130" value="&lt;b style=&quot;border-color: var(--border-color);&quot;&gt;Loss&lt;sub style=&quot;border-color: var(--border-color);&quot;&gt;stage2&lt;/sub&gt;&lt;/b&gt;&lt;b&gt;1&lt;/b&gt;" style="text;html=1;strokeColor=none;fillColor=none;align=center;verticalAlign=middle;whiteSpace=wrap;rounded=0;" vertex="1" parent="1">
          <mxGeometry x="509.5" y="787" width="32" height="21" as="geometry" />
        </mxCell>
        <mxCell id="xzxTGH6ZJ5_GRjk7ozEz-131" value="&lt;b style=&quot;border-color: var(--border-color);&quot;&gt;Loss&lt;sub style=&quot;border-color: var(--border-color);&quot;&gt;stage2&lt;/sub&gt;&lt;/b&gt;&lt;b&gt;2&lt;/b&gt;" style="text;html=1;strokeColor=none;fillColor=none;align=center;verticalAlign=middle;whiteSpace=wrap;rounded=0;" vertex="1" parent="1">
          <mxGeometry x="602.5" y="765" width="60" height="30" as="geometry" />
        </mxCell>
      </root>
    </mxGraphModel>
  </diagram>
</mxfile>
